<svg width="140" height="103" viewBox="0 0 140 103" fill="none" xmlns="http://www.w3.org/2000/svg">
<path d="M88.2583 0.947754H51.0773C22.9538 0.947754 0.155273 23.7463 0.155273 51.8698C0.155273 79.9932 22.9538 102.792 51.0773 102.792H88.2583C116.382 102.792 139.18 79.9932 139.18 51.8698C139.18 23.7463 116.382 0.947754 88.2583 0.947754Z" fill="#262626"/>
<path d="M88.2583 0.947754H51.0773C22.9538 0.947754 0.155273 23.7463 0.155273 51.8698C0.155273 79.9932 22.9538 102.792 51.0773 102.792H88.2583C116.382 102.792 139.18 79.9932 139.18 51.8698C139.18 23.7463 116.382 0.947754 88.2583 0.947754Z" fill="#3692FF"/>
<path d="M87.1291 16H51.5645C31.9228 16 16 31.9228 16 51.5645C16 71.2063 31.9228 87.1291 51.5645 87.1291H87.1291C106.771 87.1291 122.694 71.2063 122.694 51.5645C122.694 31.9228 106.771 16 87.1291 16Z" fill="#ECECEC"/>
<path d="M52 36.9135C52 33.1914 56.0012 30.8256 59.2858 32.6027L86.3738 47.2687C89.8052 49.1287 89.8052 54.0305 86.3738 55.8882L59.2858 70.5543C56.0012 72.3336 52 69.9655 52 66.2456V36.9135Z" fill="#242323"/>
</svg>
