<svg width="128" height="128" viewBox="0 0 128 128" fill="none" xmlns="http://www.w3.org/2000/svg">
<rect x="7" y="32" width="114" height="72" rx="12" fill="#B2AEAE"/>
<rect x="7" y="32" width="114" height="72" rx="12" fill="url(#paint0_linear_11909_1796)"/>
<rect x="7" y="24" width="114" height="72" rx="12" fill="#D9D9D9"/>
<rect x="14" y="30" width="100" height="60" rx="7" fill="url(#paint1_linear_11909_1796)"/>
<rect x="14" y="30" width="100" height="60" rx="7" fill="url(#paint2_radial_11909_1796)" fill-opacity="0.3"/>
<path d="M54.9488 44.5069C54.7779 44.4056 54.5834 44.3513 54.3848 44.3496C54.1863 44.3479 53.9908 44.3987 53.8182 44.497C53.6457 44.5953 53.5022 44.7374 53.4024 44.9091C53.3026 45.0808 53.25 45.2758 53.25 45.4744V71.5256C53.25 71.7242 53.3026 71.9192 53.4024 72.0909C53.5022 72.2625 53.6457 72.4047 53.8182 72.503C53.9908 72.6012 54.1863 72.6521 54.3848 72.6504C54.5834 72.6486 54.7779 72.5944 54.9488 72.4931L76.9294 59.4675C77.0972 59.3679 77.2363 59.2263 77.3329 59.0567C77.4295 58.887 77.4803 58.6952 77.4803 58.5C77.4803 58.3048 77.4295 58.1129 77.3329 57.9433C77.2363 57.7737 77.0972 57.6321 76.9294 57.5325L54.9488 44.5069Z" fill="white" stroke-width="2.8125" stroke-linecap="round" stroke-linejoin="round" stroke="white"/>
<defs>
<linearGradient id="paint0_linear_11909_1796" x1="122.71" y1="89.15" x2="5.29" y2="89.15" gradientUnits="userSpaceOnUse">
<stop stop-color="#656565"/>
<stop offset="0.0503896" stop-color="#969696"/>
<stop offset="0.179975" stop-color="#656565"/>
<stop offset="0.807708" stop-color="#656565"/>
<stop offset="0.937552" stop-color="#969696"/>
<stop offset="1" stop-color="#656565"/>
</linearGradient>
<linearGradient id="paint1_linear_11909_1796" x1="21.3041" y1="30" x2="106.696" y2="90" gradientUnits="userSpaceOnUse">
<stop stop-color="#69D876"/>
<stop offset="1" stop-color="#0E8CA8"/>
</linearGradient>
<radialGradient id="paint2_radial_11909_1796" cx="0" cy="0" r="1" gradientTransform="matrix(9.12092 82.4944 -137.491 13.8555 21.6808 23.1251)" gradientUnits="userSpaceOnUse">
<stop stop-color="white"/>
<stop offset="0.832368" stop-color="white" stop-opacity="0"/>
</radialGradient>
</defs>
</svg>
